<svg width="234" height="243" viewBox="0 0 234 243" fill="none" xmlns="http://www.w3.org/2000/svg">
<g filter="url(#filter0_ddddd_1756_677)">
<rect x="80" width="74" height="74" rx="12" fill="#49B3FB"/>
</g>
<path d="M128.89 26.3467H127.13V24.5865C127.13 24.2168 126.83 23.9167 126.461 23.9167H123.488C123.118 23.9167 122.818 24.2168 122.818 24.5865V26.3467H121.058C120.689 26.3467 120.389 26.6467 120.389 27.0164V29.9895C120.389 30.3592 120.689 30.6593 121.058 30.6593H122.818V32.4127C122.818 32.7824 123.118 33.0825 123.488 33.0825H126.461C126.83 33.0825 127.13 32.7824 127.13 32.4127V30.6593H128.89C129.26 30.6593 129.56 30.3592 129.56 29.9895V27.0164C129.56 26.6467 129.26 26.3467 128.89 26.3467ZM128.22 29.3197H126.461C126.091 29.3197 125.791 29.6198 125.791 29.9895V31.7429H124.157V29.9895C124.157 29.6198 123.857 29.3197 123.488 29.3197H121.728V27.6862H123.488C123.857 27.6862 124.157 27.3861 124.157 27.0164V25.2563H125.791V27.0164C125.791 27.3861 126.091 27.6862 126.461 27.6862H128.22V29.3197Z" fill="#031126" fill-opacity="0.6"/>
<path d="M132.474 28.5C132.474 24.3642 129.11 21 124.974 21C122.557 21 120.409 22.1547 119.036 23.9356C117.272 24.2892 115.827 24.8324 115.349 25.0246C114.237 24.5772 108.928 22.6068 105.384 24.2443C103.987 24.89 103.038 26.0045 102.559 27.5577C101.105 32.2829 102.804 35.6846 104.044 38.1681C104.519 39.1178 104.928 39.9389 104.99 40.537C105.025 40.8739 105.052 41.3602 105.087 41.9455C105.329 46.0867 105.75 50.6471 107.697 52.3389C108.203 52.7783 108.78 53 109.413 53C109.489 53 109.565 52.9973 109.642 52.9906C111.836 52.8105 111.866 50.5098 111.892 48.4798C111.933 45.2877 112.184 43.35 115.286 43.35L115.396 43.352C118.512 43.352 118.762 45.2897 118.804 48.4798C118.831 50.5098 118.861 52.8098 121.054 52.9886C121.78 53.0489 122.432 52.8306 122.997 52.3389C124.945 50.6485 125.365 46.0833 125.605 41.9368C125.64 41.3541 125.667 40.8699 125.701 40.5357C125.764 39.9356 126.174 39.1151 126.648 38.1654C127.051 37.3577 127.5 36.4454 127.879 35.414C130.575 34.2774 132.474 31.6064 132.474 28.5ZM125.449 37.568C124.917 38.6342 124.457 39.5552 124.368 40.3984C124.332 40.7487 124.303 41.253 124.268 41.8598C124.117 44.4585 123.803 49.8662 122.119 51.3283C121.829 51.5808 121.527 51.6832 121.164 51.6544C120.277 51.5821 120.172 50.6264 120.143 48.4623C120.11 45.8945 120.059 42.0125 115.41 42.0125L115.299 42.0105C110.636 42.0105 110.586 45.8931 110.552 48.4623C110.524 50.627 110.419 51.5834 109.533 51.6558C109.167 51.6846 108.867 51.5808 108.576 51.3276C106.891 49.8642 106.576 44.4632 106.425 41.8678C106.389 41.2584 106.359 40.752 106.323 40.4011C106.237 39.5598 105.776 38.6382 105.243 37.5706C104.104 35.2894 102.544 32.165 103.84 27.9522C104.206 26.7627 104.895 25.9475 105.944 25.462C108.091 24.468 111.195 25.101 113.163 25.6904C111.639 26.0895 109.502 26.5436 107.655 26.5436C107.285 26.5436 106.985 26.8437 106.985 27.2134C106.985 27.5831 107.285 27.8832 107.655 27.8832C111.164 27.8832 115.434 26.4251 115.66 26.3454C115.673 26.3394 116.679 25.9127 118.089 25.5336C117.695 26.4445 117.474 27.4472 117.474 28.5007C117.474 32.6365 120.838 36.0007 124.974 36.0007C125.408 36.0007 125.832 35.9558 126.247 35.8842C125.984 36.4856 125.707 37.0502 125.449 37.568ZM124.974 34.6612C121.577 34.6612 118.813 31.8977 118.813 28.5007C118.813 25.1036 121.577 22.3402 124.974 22.3402C128.371 22.3402 131.134 25.1036 131.134 28.5007C131.134 31.8977 128.371 34.6612 124.974 34.6612Z" fill="#031126" fill-opacity="0.6"/>
<defs>
<filter id="filter0_ddddd_1756_677" x="0" y="0" width="234" height="243" filterUnits="userSpaceOnUse" color-interpolation-filters="sRGB">
<feFlood flood-opacity="0" result="BackgroundImageFix"/>
<feColorMatrix in="SourceAlpha" type="matrix" values="0 0 0 0 0 0 0 0 0 0 0 0 0 0 0 0 0 0 127 0" result="hardAlpha"/>
<feOffset dy="3.05705"/>
<feGaussianBlur stdDeviation="1.37396"/>
<feColorMatrix type="matrix" values="0 0 0 0 0.286275 0 0 0 0 0.701961 0 0 0 0 0.984314 0 0 0 0.0496029 0"/>
<feBlend mode="normal" in2="BackgroundImageFix" result="effect1_dropShadow_1756_677"/>
<feColorMatrix in="SourceAlpha" type="matrix" values="0 0 0 0 0 0 0 0 0 0 0 0 0 0 0 0 0 0 127 0" result="hardAlpha"/>
<feOffset dy="7.73152"/>
<feGaussianBlur stdDeviation="3.47484"/>
<feColorMatrix type="matrix" values="0 0 0 0 0.286275 0 0 0 0 0.701961 0 0 0 0 0.984314 0 0 0 0.0709935 0"/>
<feBlend mode="normal" in2="effect1_dropShadow_1756_677" result="effect2_dropShadow_1756_677"/>
<feColorMatrix in="SourceAlpha" type="matrix" values="0 0 0 0 0 0 0 0 0 0 0 0 0 0 0 0 0 0 127 0" result="hardAlpha"/>
<feOffset dy="15.7716"/>
<feGaussianBlur stdDeviation="7.08835"/>
<feColorMatrix type="matrix" values="0 0 0 0 0.286275 0 0 0 0 0.701961 0 0 0 0 0.984314 0 0 0 0.0890065 0"/>
<feBlend mode="normal" in2="effect2_dropShadow_1756_677" result="effect3_dropShadow_1756_677"/>
<feColorMatrix in="SourceAlpha" type="matrix" values="0 0 0 0 0 0 0 0 0 0 0 0 0 0 0 0 0 0 127 0" result="hardAlpha"/>
<feOffset dy="32.4865"/>
<feGaussianBlur stdDeviation="14.6007"/>
<feColorMatrix type="matrix" values="0 0 0 0 0.286275 0 0 0 0 0.701961 0 0 0 0 0.984314 0 0 0 0.110397 0"/>
<feBlend mode="normal" in2="effect3_dropShadow_1756_677" result="effect4_dropShadow_1756_677"/>
<feColorMatrix in="SourceAlpha" type="matrix" values="0 0 0 0 0 0 0 0 0 0 0 0 0 0 0 0 0 0 127 0" result="hardAlpha"/>
<feOffset dy="89"/>
<feGaussianBlur stdDeviation="40"/>
<feColorMatrix type="matrix" values="0 0 0 0 0.286275 0 0 0 0 0.701961 0 0 0 0 0.984314 0 0 0 0.16 0"/>
<feBlend mode="normal" in2="effect4_dropShadow_1756_677" result="effect5_dropShadow_1756_677"/>
<feBlend mode="normal" in="SourceGraphic" in2="effect5_dropShadow_1756_677" result="shape"/>
</filter>
</defs>
</svg>
