<svg width="194" height="194" viewBox="0 0 194 194" fill="none" xmlns="http://www.w3.org/2000/svg">
<g filter="url(#filter0_d_1756_670)">
<rect x="60" y="30" width="74" height="74" rx="12" fill="white"/>
<rect x="60.5" y="30.5" width="73" height="73" rx="11.5" stroke="url(#paint0_linear_1756_670)"/>
</g>
<path d="M95.7105 72.7042C95.9544 72.4598 95.9544 72.0643 95.7105 71.8199C95.4663 71.5763 95.0706 71.5763 94.8262 71.8199C94.5824 72.0643 94.5824 72.4598 94.8262 72.7042C95.0706 72.9479 95.4663 72.9479 95.7105 72.7042Z" fill="#031126" fill-opacity="0.6"/>
<path d="M92.75 57.8731C92.75 61.6629 95.8342 64.7464 99.6252 64.7464C103.416 64.7464 106.5 61.6629 106.5 57.8731C106.5 54.0833 103.416 51 99.6252 51C95.8342 51 92.75 54.0833 92.75 57.8731ZM105.25 57.8731C105.25 60.9739 102.727 63.4966 99.6252 63.4966C96.5234 63.4966 93.9999 60.9739 93.9999 57.8731C93.9999 54.7725 96.5234 52.2498 99.6252 52.2498C102.727 52.2498 105.25 54.7725 105.25 57.8731Z" fill="#031126" fill-opacity="0.6"/>
<path d="M88.1992 82.8153C88.4415 83.0594 88.8359 83.0621 89.0813 82.8204L92.1116 79.836C92.6264 79.3214 92.7829 78.5594 92.5565 77.8971L93.2083 77.2686C93.5593 76.9298 94.0213 76.743 94.5098 76.743H102.819C104.293 76.743 105.686 76.1771 106.742 75.1495C106.786 75.1073 106.412 75.547 112.411 68.38C113.301 67.3277 113.167 65.7476 112.114 64.8572C111.067 63.9752 109.499 64.1019 108.606 65.1361L104.918 68.9256C104.453 68.3526 103.742 67.9954 102.975 67.9954H96.0054C95.0136 67.5806 93.9613 67.3707 92.8755 67.3707C89.8657 67.3707 87.2377 68.7603 85.8274 71.3658C85.2332 71.2533 84.6065 71.4329 84.1557 71.8836L81.1824 74.8648C80.9396 75.1082 80.9391 75.502 81.1814 75.7462L88.1992 82.8153ZM92.8752 68.6202C93.8326 68.6202 94.7581 68.8128 95.6268 69.1927C95.7059 69.2274 95.7912 69.2452 95.8774 69.2452H102.975C103.653 69.2452 104.225 69.7977 104.225 70.4947C104.225 71.1839 103.664 71.7445 102.975 71.7445H97.8756C97.5305 71.7445 97.2506 72.0242 97.2506 72.3692C97.2506 72.7144 97.5305 72.994 97.8756 72.994H102.975C104.354 72.994 105.475 71.8729 105.475 70.4947C105.475 70.3848 105.467 70.276 105.453 70.168C109.021 66.5018 109.524 65.9866 109.545 65.961C109.991 65.4354 110.782 65.3687 111.308 65.8121C111.834 66.2571 111.901 67.0472 111.454 67.5758L105.848 74.2755C105.03 75.0611 103.955 75.4935 102.819 75.4935H94.5098C93.6956 75.4935 92.9248 75.8048 92.3401 76.3695L91.809 76.8819L86.9124 71.9871C88.0568 69.8409 90.2042 68.6202 92.8752 68.6202ZM85.0403 72.7667C85.2464 72.5606 85.5629 72.5235 85.8142 72.6788C85.9224 72.7447 85.6117 72.462 91.2277 78.0684C91.4776 78.3182 91.4641 78.7162 91.2312 78.9491L88.6478 81.4933L82.5065 75.307L85.0403 72.7667Z" fill="#031126" fill-opacity="0.6"/>
<path d="M98.8756 54.1243V54.8564C98.1481 55.1143 97.6254 55.8088 97.6254 56.6235C97.6254 57.657 98.4665 58.4981 99.5005 58.4981C99.8451 58.4981 100.125 58.7783 100.125 59.1228C100.125 59.4673 99.8451 59.7476 99.5005 59.7476C99.2336 59.7476 98.9452 59.5798 98.689 59.2749C98.4668 59.0108 98.0726 58.9768 97.8084 59.1987C97.5441 59.4209 97.5099 59.815 97.7322 60.0791C98.0662 60.4763 98.4592 60.7532 98.8756 60.8928V61.6221C98.8756 61.9673 99.1555 62.2468 99.5005 62.2468C99.8456 62.2468 100.125 61.9673 100.125 61.6221V60.8899C100.853 60.6318 101.376 59.9373 101.376 59.1228C101.376 58.0891 100.535 57.2483 99.5005 57.2483C99.1559 57.2483 98.8756 56.968 98.8756 56.6235C98.8756 56.2791 99.1559 55.9985 99.5005 55.9985C99.722 55.9985 99.9557 56.1116 100.177 56.3252C100.425 56.5652 100.82 56.5586 101.06 56.3108C101.3 56.0627 101.294 55.6672 101.046 55.4272C100.729 55.1204 100.411 54.9468 100.125 54.8521V54.1243C100.125 53.7791 99.8456 53.4993 99.5005 53.4993C99.1555 53.4993 98.8756 53.7791 98.8756 54.1243Z" fill="#031126" fill-opacity="0.6"/>
<defs>
<filter id="filter0_d_1756_670" x="0" y="0" width="194" height="194" filterUnits="userSpaceOnUse" color-interpolation-filters="sRGB">
<feFlood flood-opacity="0" result="BackgroundImageFix"/>
<feColorMatrix in="SourceAlpha" type="matrix" values="0 0 0 0 0 0 0 0 0 0 0 0 0 0 0 0 0 0 127 0" result="hardAlpha"/>
<feOffset dy="30"/>
<feGaussianBlur stdDeviation="30"/>
<feComposite in2="hardAlpha" operator="out"/>
<feColorMatrix type="matrix" values="0 0 0 0 0.223529 0 0 0 0 0.223529 0 0 0 0 0.223529 0 0 0 0.15 0"/>
<feBlend mode="normal" in2="BackgroundImageFix" result="effect1_dropShadow_1756_670"/>
<feBlend mode="normal" in="SourceGraphic" in2="effect1_dropShadow_1756_670" result="shape"/>
</filter>
<linearGradient id="paint0_linear_1756_670" x1="97" y1="30" x2="97" y2="104" gradientUnits="userSpaceOnUse">
<stop offset="0.633496" stop-color="#49B3FB"/>
<stop offset="1" stop-color="#49B3FB" stop-opacity="0"/>
</linearGradient>
</defs>
</svg>
