<svg width="50" height="50" viewBox="0 0 50 50" fill="none" xmlns="http://www.w3.org/2000/svg">
<circle cx="25" cy="25" r="24.5" fill="white" stroke="#0098FF" stroke-linecap="round" stroke-linejoin="round" stroke-dasharray="4 4"/>
<path d="M24.5243 33.32C23.9643 33.32 23.4243 33.2467 22.9043 33.1C22.3976 32.9533 21.931 32.7333 21.5043 32.44C21.0776 32.1333 20.6976 31.7533 20.3643 31.3C20.0443 30.8467 19.7976 30.32 19.6243 29.72L22.0843 28.74C22.2576 29.4067 22.551 29.9133 22.9643 30.26C23.3776 30.5933 23.8976 30.76 24.5243 30.76C24.8043 30.76 25.071 30.72 25.3243 30.64C25.5776 30.5467 25.7976 30.42 25.9843 30.26C26.171 30.1 26.3176 29.9133 26.4243 29.7C26.5443 29.4733 26.6043 29.22 26.6043 28.94C26.6043 28.3533 26.3843 27.8933 25.9443 27.56C25.5176 27.2267 24.9243 27.06 24.1643 27.06H22.9843V24.68H24.0643C24.331 24.68 24.591 24.6467 24.8443 24.58C25.0976 24.5133 25.3176 24.4133 25.5043 24.28C25.7043 24.1333 25.8576 23.9533 25.9643 23.74C26.0843 23.5133 26.1443 23.2533 26.1443 22.96C26.1443 22.5067 25.9843 22.14 25.6643 21.86C25.3443 21.5667 24.911 21.42 24.3643 21.42C23.7776 21.42 23.3243 21.58 23.0043 21.9C22.6976 22.2067 22.4843 22.5533 22.3643 22.94L19.9643 21.96C20.0843 21.6267 20.2643 21.2867 20.5043 20.94C20.7443 20.58 21.0443 20.26 21.4043 19.98C21.7776 19.6867 22.211 19.4533 22.7043 19.28C23.1976 19.0933 23.7643 19 24.4043 19C25.0576 19 25.651 19.0933 26.1843 19.28C26.731 19.4667 27.1976 19.7267 27.5843 20.06C27.971 20.38 28.271 20.7667 28.4843 21.22C28.6976 21.66 28.8043 22.14 28.8043 22.66C28.8043 23.06 28.751 23.42 28.6443 23.74C28.551 24.06 28.4243 24.3467 28.2643 24.6C28.1043 24.8533 27.9176 25.0733 27.7043 25.26C27.5043 25.4333 27.2976 25.5733 27.0843 25.68V25.84C27.7243 26.0933 28.251 26.5 28.6643 27.06C29.091 27.62 29.3043 28.3267 29.3043 29.18C29.3043 29.78 29.191 30.3333 28.9643 30.84C28.7376 31.3333 28.411 31.7667 27.9843 32.14C27.571 32.5133 27.071 32.8 26.4843 33C25.8976 33.2133 25.2443 33.32 24.5243 33.32Z" fill="#031126" fill-opacity="0.75"/>
</svg>
