<svg width="50" height="50" viewBox="0 0 50 50" fill="none" xmlns="http://www.w3.org/2000/svg">
<circle cx="25" cy="25" r="24.5" fill="white" stroke="#0098FF" stroke-linecap="round" stroke-linejoin="round" stroke-dasharray="4 4"/>
<path d="M19.9708 33V30.62C20.7574 29.8467 21.4841 29.1267 22.1508 28.46C22.4308 28.18 22.7174 27.8933 23.0108 27.6C23.3041 27.3067 23.5774 27.0333 23.8308 26.78C24.0841 26.5267 24.3108 26.3 24.5108 26.1C24.7108 25.8867 24.8641 25.72 24.9708 25.6C25.1841 25.3467 25.3708 25.12 25.5308 24.92C25.7041 24.72 25.8374 24.5267 25.9308 24.34C26.0374 24.14 26.1174 23.9467 26.1708 23.76C26.2241 23.56 26.2508 23.3467 26.2508 23.12C26.2508 22.68 26.0774 22.3 25.7308 21.98C25.3841 21.6467 24.9108 21.48 24.3108 21.48C23.7108 21.48 23.2441 21.6533 22.9108 22C22.5774 22.3333 22.3508 22.7133 22.2308 23.14L19.8508 22.16C19.9574 21.8 20.1308 21.4333 20.3708 21.06C20.6108 20.6733 20.9174 20.3333 21.2908 20.04C21.6641 19.7333 22.1041 19.4867 22.6108 19.3C23.1308 19.1 23.7108 19 24.3508 19C25.0441 19 25.6708 19.1067 26.2308 19.32C26.7908 19.52 27.2641 19.8 27.6508 20.16C28.0374 20.52 28.3374 20.9467 28.5508 21.44C28.7641 21.92 28.8708 22.44 28.8708 23C28.8708 23.8533 28.6574 24.64 28.2308 25.36C27.8174 26.0667 27.3108 26.7267 26.7108 27.34L24.9908 29.06C24.5374 29.5133 24.0241 30.02 23.4508 30.58L23.5308 30.7H29.0708V33H19.9708Z" fill="#031126" fill-opacity="0.75"/>
</svg>
