<svg width="173" height="50" viewBox="0 0 173 50" fill="none" xmlns="http://www.w3.org/2000/svg">
<path d="M79.1761 18.134L75.8611 30H73.0561L70.8291 21.551L68.5001 30L65.7121 30.017L62.5161 18.134H65.0661L67.1571 27.348L69.5711 18.134H72.2231L74.5011 27.297L76.6091 18.134H79.1761ZM80.1181 25.257C80.1181 24.305 80.3051 23.4607 80.6791 22.724C81.0645 21.9873 81.5801 21.4207 82.2261 21.024C82.8835 20.6273 83.6145 20.429 84.4191 20.429C85.1218 20.429 85.7338 20.5707 86.2551 20.854C86.7878 21.1373 87.2128 21.4943 87.5301 21.925V20.582H89.9271V30H87.5301V28.623C87.2241 29.065 86.7991 29.4333 86.2551 29.728C85.7225 30.0113 85.1048 30.153 84.4021 30.153C83.6088 30.153 82.8835 29.949 82.2261 29.541C81.5801 29.133 81.0645 28.5607 80.6791 27.824C80.3051 27.076 80.1181 26.2203 80.1181 25.257ZM87.5301 25.291C87.5301 24.713 87.4168 24.22 87.1901 23.812C86.9635 23.3927 86.6575 23.0753 86.2721 22.86C85.8868 22.6333 85.4731 22.52 85.0311 22.52C84.5891 22.52 84.1811 22.6277 83.8071 22.843C83.4331 23.0583 83.1271 23.3757 82.8891 23.795C82.6625 24.203 82.5491 24.6903 82.5491 25.257C82.5491 25.8237 82.6625 26.3223 82.8891 26.753C83.1271 27.1723 83.4331 27.4953 83.8071 27.722C84.1925 27.9487 84.6005 28.062 85.0311 28.062C85.4731 28.062 85.8868 27.9543 86.2721 27.739C86.6575 27.5123 86.9635 27.195 87.1901 26.787C87.4168 26.3677 87.5301 25.869 87.5301 25.291ZM95.0226 22.537V27.093C95.0226 27.4103 95.0963 27.6427 95.2436 27.79C95.4023 27.926 95.6629 27.994 96.0256 27.994H97.1306V30H95.6346C93.6286 30 92.6256 29.0253 92.6256 27.076V22.537H91.5036V20.582H92.6256V18.253H95.0226V20.582H97.1306V22.537H95.0226ZM98.2304 25.291C98.2304 24.3163 98.4288 23.4663 98.8254 22.741C99.2221 22.0043 99.7718 21.4377 100.474 21.041C101.177 20.633 101.982 20.429 102.888 20.429C104.056 20.429 105.019 20.7237 105.778 21.313C106.549 21.891 107.065 22.707 107.325 23.761H104.758C104.622 23.353 104.39 23.0357 104.061 22.809C103.744 22.571 103.347 22.452 102.871 22.452C102.191 22.452 101.653 22.7013 101.256 23.2C100.86 23.6873 100.661 24.3843 100.661 25.291C100.661 26.1863 100.86 26.8833 101.256 27.382C101.653 27.8693 102.191 28.113 102.871 28.113C103.835 28.113 104.464 27.6823 104.758 26.821H107.325C107.065 27.841 106.549 28.6513 105.778 29.252C105.008 29.8527 104.044 30.153 102.888 30.153C101.982 30.153 101.177 29.9547 100.474 29.558C99.7718 29.15 99.2221 28.5833 98.8254 27.858C98.4288 27.1213 98.2304 26.2657 98.2304 25.291ZM114.373 20.446C115.087 20.446 115.722 20.6047 116.277 20.922C116.832 21.228 117.263 21.687 117.569 22.299C117.886 22.8997 118.045 23.625 118.045 24.475V30H115.665V24.798C115.665 24.05 115.478 23.4777 115.104 23.081C114.73 22.673 114.22 22.469 113.574 22.469C112.917 22.469 112.395 22.673 112.01 23.081C111.636 23.4777 111.449 24.05 111.449 24.798V30H109.069V17.42H111.449V21.755C111.755 21.347 112.163 21.0297 112.673 20.803C113.183 20.565 113.75 20.446 114.373 20.446ZM135.018 18.134L130.666 30H127.776L123.424 18.134H125.974L129.238 27.569L132.485 18.134H135.018ZM137.652 19.46C137.233 19.46 136.881 19.3297 136.598 19.069C136.326 18.797 136.19 18.4627 136.19 18.066C136.19 17.6693 136.326 17.3407 136.598 17.08C136.881 16.808 137.233 16.672 137.652 16.672C138.071 16.672 138.417 16.808 138.689 17.08C138.972 17.3407 139.114 17.6693 139.114 18.066C139.114 18.4627 138.972 18.797 138.689 19.069C138.417 19.3297 138.071 19.46 137.652 19.46ZM138.825 20.582V30H136.445V20.582H138.825ZM140.564 25.257C140.564 24.305 140.751 23.4607 141.125 22.724C141.511 21.9873 142.032 21.4207 142.689 21.024C143.347 20.6273 144.078 20.429 144.882 20.429C145.494 20.429 146.078 20.565 146.633 20.837C147.189 21.0977 147.631 21.449 147.959 21.891V17.42H150.373V30H147.959V28.606C147.665 29.0707 147.251 29.4447 146.718 29.728C146.186 30.0113 145.568 30.153 144.865 30.153C144.072 30.153 143.347 29.949 142.689 29.541C142.032 29.133 141.511 28.5607 141.125 27.824C140.751 27.076 140.564 26.2203 140.564 25.257ZM147.976 25.291C147.976 24.713 147.863 24.22 147.636 23.812C147.41 23.3927 147.104 23.0753 146.718 22.86C146.333 22.6333 145.919 22.52 145.477 22.52C145.035 22.52 144.627 22.6277 144.253 22.843C143.879 23.0583 143.573 23.3757 143.335 23.795C143.109 24.203 142.995 24.6903 142.995 25.257C142.995 25.8237 143.109 26.3223 143.335 26.753C143.573 27.1723 143.879 27.4953 144.253 27.722C144.639 27.9487 145.047 28.062 145.477 28.062C145.919 28.062 146.333 27.9543 146.718 27.739C147.104 27.5123 147.41 27.195 147.636 26.787C147.863 26.3677 147.976 25.869 147.976 25.291ZM161.453 25.087C161.453 25.427 161.43 25.733 161.385 26.005H154.5C154.557 26.685 154.795 27.2177 155.214 27.603C155.633 27.9883 156.149 28.181 156.761 28.181C157.645 28.181 158.274 27.8013 158.648 27.042H161.215C160.943 27.9487 160.422 28.6967 159.651 29.286C158.88 29.864 157.934 30.153 156.812 30.153C155.905 30.153 155.089 29.9547 154.364 29.558C153.65 29.15 153.089 28.5777 152.681 27.841C152.284 27.1043 152.086 26.2543 152.086 25.291C152.086 24.3163 152.284 23.4607 152.681 22.724C153.078 21.9873 153.633 21.4207 154.347 21.024C155.061 20.6273 155.883 20.429 156.812 20.429C157.707 20.429 158.506 20.6217 159.209 21.007C159.923 21.3923 160.473 21.942 160.858 22.656C161.255 23.3587 161.453 24.169 161.453 25.087ZM158.988 24.407C158.977 23.795 158.756 23.3077 158.325 22.945C157.894 22.571 157.367 22.384 156.744 22.384C156.155 22.384 155.656 22.5653 155.248 22.928C154.851 23.2793 154.608 23.7723 154.517 24.407H158.988ZM167.372 30.153C166.465 30.153 165.649 29.9547 164.924 29.558C164.199 29.15 163.626 28.5777 163.207 27.841C162.799 27.1043 162.595 26.2543 162.595 25.291C162.595 24.3277 162.805 23.4777 163.224 22.741C163.655 22.0043 164.238 21.4377 164.975 21.041C165.712 20.633 166.533 20.429 167.44 20.429C168.347 20.429 169.168 20.633 169.905 21.041C170.642 21.4377 171.22 22.0043 171.639 22.741C172.07 23.4777 172.285 24.3277 172.285 25.291C172.285 26.2543 172.064 27.1043 171.622 27.841C171.191 28.5777 170.602 29.15 169.854 29.558C169.117 29.9547 168.29 30.153 167.372 30.153ZM167.372 28.079C167.803 28.079 168.205 27.977 168.579 27.773C168.964 27.5577 169.27 27.2403 169.497 26.821C169.724 26.4017 169.837 25.8917 169.837 25.291C169.837 24.3957 169.599 23.71 169.123 23.234C168.658 22.7467 168.086 22.503 167.406 22.503C166.726 22.503 166.154 22.7467 165.689 23.234C165.236 23.71 165.009 24.3957 165.009 25.291C165.009 26.1863 165.23 26.8777 165.672 27.365C166.125 27.841 166.692 28.079 167.372 28.079Z" fill="#031126"/>
<path d="M25 0C38.779 0 50 11.2156 50 25.0145C50 38.7844 38.779 50 25 50C11.221 50 0 38.7844 0 25.0145C0 11.2156 11.221 0 25 0ZM22.1525 15.0748C21.6216 15.0748 21.1149 15.1954 20.6322 15.4366C20.029 15.7742 19.5463 16.3049 19.2809 16.932C19.112 17.3661 18.8465 18.6686 18.8465 18.6927C18.5811 20.1158 18.4363 22.4313 18.4363 24.9879C18.4363 27.4264 18.5811 29.643 18.7983 31.0902C18.8224 31.1143 19.0878 32.7303 19.3774 33.2851C19.9083 34.2981 20.9459 34.9252 22.056 34.9252H22.1525C22.8764 34.9011 24.3967 34.274 24.3967 34.2499C26.9546 33.1886 31.9981 29.8842 34.0251 27.6893L34.1699 27.5446C34.4353 27.2793 34.7732 26.8693 34.8456 26.7728C35.2317 26.2663 35.4247 25.6392 35.4247 25.0145C35.4247 24.3126 35.2075 23.6614 34.7973 23.1307C34.7008 23.0343 34.3388 22.6242 34.001 22.2865C32.0222 20.164 26.8581 16.6908 24.1554 15.6295C23.7452 15.4631 22.7075 15.0989 22.1525 15.0748Z" fill="#49B3FB"/>
</svg>
